<svg xmlns="http://www.w3.org/2000/svg" xmlns:xlink="http://www.w3.org/1999/xlink" width="530.767" height="703" viewBox="0 0 530.767 703">
    <style type="text/css">
<![CDATA[
	.st0{fill:none;stroke:#999999;stroke-width:2.5982;stroke-miterlimit:10;}
	.st1{fill:#666666;}
	.st2{display:none;}
]]>
    </style>
    <path class="st1" d="M358.22 119.56s3.12 5.715-8.313 13.77c0 0-11.173 3.118-11.433 13.51v10.395s13.51 7.794 14.29 15.33c0 0 2.468 5.715-4.223 7.274 0 0-4.09 10.392 4.744 12.73 0 0 3.896-.26 4.157 1.56 0 0 5.197 1.038 4.418-11.434 0 0 4.156-8.055 7.015-8.834l4.157 3.118 7.275 1.3 6.235-7.275-12.73-5.457-.26-4.416s.26-1.56-3.64-1.04c0 0-14.29.78-14.29-8.834 0 0-2.856-9.613 9.874-10.652 0 0 7.795-2.858 10.394 9.873l11.95-11.953s16.37-5.976 23.386-.26l15.85 11.173s7.794 5.196 10.912 4.157c0 0 11.465 5.737 15.07 4.937 2.337-.52 1.038-17.668 2.337-21.046 0 0 5.717-12.73 8.055-12.73 0 0 10.653-16.63 18.967-16.63l6.236 2.08 7.536-.26s-5.197-5.977-1.56-7.017c0 0 1.56-2.077 4.677 2.34 0 0 2.858 1.36 4.938-2.827 0 0 7.016-5.487 9.355-5.487 0 0 5.196-1.818 6.495-6.495l4.677-4.416-7.795 2.857s-2.598 2.34-7.015-2.856c0 0-16.89-18.447-6.496-30.66l2.34-4.676.26-6.756-6.496 5.456s-1.818 1.56-2.857 6.756c0 0-6.496 11.172-22.345 6.235 0 0-12.472 1.56-24.943-7.275 0 0-1.56-1.82-5.457-1.82 0 0-12.99-9.872-12.342-9.353s-33.126-28.58-36.244-36.115c0 0-2.6-3.118-7.015 0l-.26 7.535s-6.495 2.338-5.976 8.834c0 0 2.6 6.755 7.275 10.652 0 0 6.754 9.613 1.817 12.99l-.26 14.29-2.338 3.38 2.077 2.078s3.378 16.108-3.378 16.108c0 0-3.898 3.378-3.12 5.976 0 0 3.9 0 2.34 4.157 0 0 3.638 18.968-10.912 16.63 0 0-7.016 1.558-9.874-1.56 0 0-2.857-4.417-10.912.52 0 0-4.416 3.636 3.38 10.132z" id="hokkaido"/>
    <g id="tohoku">
        <path class="st1" d="M355.882 242.975s-9.873-8.834-3.638-10.913c0 0 11.86-1.722 9.354-20.006 0 0-1.3-7.535 3.896-7.275l1.82-.006s3.117-3.644 5.195 0l1.298 3.645s-1.3 7.794 3.118 11.432c0 0 1.818 3.377 4.677-1.04 0 0 1.3-4.417 3.638-4.157 0 0 5.717 1.3 5.977 3.378 0 0 1.818-1.04 2.34-6.235v-8.642s-.26-5.004-4.938 0c0 0-4.68 4.75-10.395 3.186 0 0-3.638-.26 1.04-7.795l.78-6.236s3.376-4.676 6.754 0c0 0 2.078 4.2 6.755 1.842l3.638-2.36 1.56 12.472s2.337 1.82 1.817 5.196l.075 10.394 11.357 14.81s-1.3 3.897-7.795 3.897c0 0-3.897.78-4.677 4.418 0 0-5.196 3.897-7.016 1.818 0 0-2.078-.52-2.338-4.937 0 0 1.3-3.12-2.6-3.898 0 0-3.116-.26-5.195 2.6 0 0 1.04 2.077-5.455 1.817l-13.25-.26c.002-.004-1.557-1.303-7.793 2.855z" id="aomori"/>
        <path class="st1" d="M356.92 244.273l5.198-2.858h18.974s1.812-.52 2.98-2.857c0 0 2.34-2.21 3.897-1.43 0 0 1.688-.52 1.3 2.6 0 0-.26 4.936 1.168 5.325 0 0-2.73 1.43-2.858 8.964l-.13 16.5s.65 2.597-1.688 5.585l-1.04 7.925s.26 3.508 2.08 4.157c0 0 2.598 1.948 2.598 3.248l3.508 6.105s2.338 3.897-1.69 5.846l-3.377 2.47s-2.337 1.298-5.325-.13l-11.562-4.288s-2.988-1.688-6.106-.91h-4.287s2.73-2.857 2.34-9.483v-13.9s0-1.818-2.08-3.377c0 0-1.43-2.73-.78-4.417l.26-5.066s-.52-2.34-1.298-1.3c0 0-.78-.39-.78 3.248 0 0-1.04 5.846-5.326 5.456 0 0-4.676-.39-3.507-4.417 0 0 .39-4.418 5.195-6.236 0 0 2.988-3.638 2.988-8.964-.002-.002 1.297-6.628-.652-7.797z" id="akita"/>
        <path class="st1" d="M391.478 245.962s-3.117 1.82-2.857 12.082l.13 13.38s-.13 3.12-1.688 4.288c0 0-.78.78-.13 1.82l-1.17 5.585s-.26 3.638 2.08 4.287c0 0 2.078 2.208 2.208 3.117 0 0 6.625 8.445 3.768 11.823 0 0 2.208-.52 2.728.39 0 0 1.82 1.43 4.027.78 0 0 3.703.714 6.95 3.637 0 0 2.663 2.858 5.066 2.533 0 0 2.922.195 3.637-.78 0 0 1.494-.908 4.027-.974 0 0 .52-6.496 4.677-10.198 0 0 6.107-3.963 6.237-16.824l.26-1.363s3.117-6.56.324-13.187c0 0-2.272-9.29-5.26-12.602 0 0-2.6-2.598-5.847-7.405 0 0-5.26-9.157-7.534-11.105 0 0-2.47 4.092-6.107 4.222 0 0-4.417-.064-5.066 1.754 0 0-.39 1.56-2.014 2.664 0 0-3.12 3.053-8.445 2.078z" id="iwate"/>
        <path class="st1" d="M360.43 301.694l6.885-.26s3.118.39 3.897 1.17l11.82 4.546s2.99.174 3.336 0c0 0-.606.174-.693 2.858l.606 3.638s1.387 1.818 1.733 5.196l-.087 12.298s0 5.803-5.803 10.74c0 0-4.157 4.243-2.165 5.802l4.85 4.417s-1.3 1.125-1.646 2.25c0 0-.26 3.726-6.495 3.726l-9.007.086s-3.812-.086-5.37-2.338c0 0-3.725-2.512-1.646-9.268 0 0 1.386-2.338 4.243-4.07 0 0 2.513-2.425.606-4.937 0 0-2.944-4.245-5.543-5.284 0 0-6.148-3.81-6.928-4.937 0 0-.174-6.063 3.204-9.095 0 0 4.157-5.11 4.244-11.346l-.04-5.196z" id="yamagata"/>
        <path class="st1" d="M385.502 350.974l-4.157-3.29s-1.646-1.387.52-3.552l3.897-4.157s2.77-4.244 3.118-7.535l.173-14.117s.087-2.598-1.646-4.503c0 0-1.213-3.897-.26-5.803l6.495-4.677s1.04-.52 2.08.173l2.25.953 2.512-.087s3.984 1.558 6.323 3.55c0 0 1.818 2.426 4.503 2.77 0 0 3.55.26 4.417-.605 0 0 1.56-.952 4.33-1.212 0 0-.692 7.102 4.33 14.723 0 0 1.127 1.646.26 2.858 0 0-1.212 1.818-3.896-.26 0 0-3.377-1.992-7.36.433 0 0-2.165.78-6.755 5.803 0 0-2.252 2.512-1.56 7.016 0 0 0 5.196 1.818 9.873 0 0 .693 1.645-7.274 1.038 0 0-1.647.26-5.37-2.078 0 0-2.945-.953-5.89.866 0 0-1.56.78-2.858 1.818z" id="miyagi"/>
        <path class="st1" d="M364.976 358.51s1.473.52 2.252.69l11.52-.085s2.944-.434 4.763-3.292c0 0 2.514-5.803 8.402-6.755 0 0 2.685 0 5.11 1.732 0 0 1.645 1.04 3.983.865 0 0 5.803.174 6.322-1.125 0 0 7.188 8.834 6.842 17.668l1.73 6.062s.866 12.384-3.204 15.936c0 0-1.73 1.04-1.73 5.023 0 0-1.3-1.993-6.584-2.08 0 0-3.983-.434-5.196 3.55 0 0-.26 1.474-2.25 1.56 0 0-.607.693-3.38-1.905l-9.267-8.834s-.866-1.904-5.283-1.904c0 0-1.387-1.04-6.583 3.725l-5.802 5.804s-3.205 3.55-7.016 3.204l-4.764-.866s.26-3.204-2.77-6.322c0 0-2.772-1.646-3.205-7.188 0 0-1.126-6.755 2.685-7.274 0 0 4.938-.52 6.496-2.252 0 0 3.464-1.213 3.377-7.188 0 0-.433-3.897 1.3-4.937 0 0 .605-1.993 2.25-3.81z" id="fukushima"/>
    </g>
    <g id="kanto">
        <path class="st1" d="M356.66 399.128s2.08.52 1.69 5.196c0 0 .13 4.547 3.248 6.885 0 0 1.688 1.948.39 4.416 0 0-.78 2.988 2.208 5.717l8.055 7.534s4.028-.13 9.874-4.027l8.055-8.184s1.817-1.69 1.298-5.066l-.78-4.938-.13-3.377s-1.817-4.547-.13-7.925l-7.015-7.146s-.78-1.818-4.027-1.688c0 0-1.948-.65-5.456 2.728l-7.145 7.405s-1.95 2.858-10.134 2.468z" id="tochigi"/>
        <path class="st1" d="M391.348 396.14s-1.17 3.768.65 6.626c0 0 .778 8.443.13 12.6 0 0 .52 1.82-5.847 7.017 0 0-2.467 4.547-12.47 7.535l4.286 3.897s2.21 1.818 4.417 1.3c0 0 4.157.778 5.976 3.507 0 0 1.818 2.208 4.937 2.338 0 0 2.338.26 3.377-2.858 0 0 1.43-2.338 5.066-2.468 0 0 3.638-1.69 6.106-.78 0 0 4.287 1.17 4.807 3.51 0 0 2.6 2.727 2.988 2.077l1.95-.13-7.017-7.664s-4.547-5.196-4.807-11.432l-.39-11.692s.13-4.417 1.82-6.235l2.986-7.016s-1.43-2.337-6.235-2.077c0 0-2.338-.65-4.157 2.987 0 0-.39 2.21-2.728 2.21 0 0-2.08.13-3.768-1.56l-2.076-1.69z" id="ibaraki"/>
        <path class="st1" d="M379.267 435.893s5.326 7.925 3.637 15.59c0 0 2.6-1.43 5.717-1.43 0 0 3.768-.52 4.288 1.43 0 0 1.56 1.56-1.56 4.546 0 0-5.716 4.286-5.846 6.625l-.26 11.172s.39 3.638 1.43 5.067c0 0 1.038 2.468-.13 3.117 0 0-.13 2.08 1.687 2.34 0 0 4.806.65 5.586-3.378 0 0 1.04-4.807 3.767-5.196l5.067-3.508s4.027-1.56 3.378-5.326l-.13-6.365.39-8.314s0-3.768 4.026-5.066c0 0 7.795-3.248 7.665-5.587 0 0-2.47.52-4.548-1.3l-3.638-3.507s-2.338-2.078-7.145-.26c0 0-4.288.39-5.588 3.248 0 0-1.04 2.47-3.896 2.47 0 0-4.287-.91-5.587-3.118 0 0-1.56-1.82-5.457-2.988l-2.856-.26z" id="chiba"/>
        <path class="st1" d="M350.945 397.18s-2.858-.78-5.456 4.676l-3.25 6.366s-1.817 2.728-5.195 2.338l-7.535 7.146s-3.117 4.677-1.17 6.105c0 0 1.04 3.12 4.938 2.86 0 0 4.677-.26 3.897 5.585 0 0-1.43 7.795 2.078 9.354l3.118 2.728s5.067-8.704 9.484-10.913c0 0 5.717-4.807 6.106-4.677 0 0-.39-1.3 12.6.26 0 0-10.91-8.313-9.612-13.9 0 0 .78-.65.13-2.078 0 0-.26-1.82-2.338-3.378 0 0-1.17-1.17-1.17-4.807 0 0 .26-4.807-2.598-5.456l-1.04-1.04c.002 0-.648-1.17-2.987-1.17z" id="gunma"/>
        <path class="st1" d="M343.28 444.986s11.173-15.33 15.85-15.33l13.12.65s9.874 5.846 9.355 16.498c0 0-2.858.13-2.988 1.17 0 0-4.807.13-6.755.91 0 0-4.677 1.687-8.964-.52 0 0-3.378-2.99-8.185-.91 0 0-1.948 2.338-.78 3.896 0 .002-5.975-.778-10.653-6.364z" id="saitama"/>
        <path class="st1" d="M360.17 456.55s.52-2.73-4.288-4.288c0 0-2.078-1.56-.65-3.638 0 0 1.43-2.08 4.548-.52 0 0 3.638 1.688 5.326 2.208l5.456-.13s5.197-1.17 7.795-.65c0 0 1.43-1.687 3.378-1.298l.26 3.508s-2.728 1.43-3.378 3.637h-5.456s-.26 1.17-3.637 1.3l-9.354-.13z" id="tokyo"/>
        <path class="st1" d="M351.725 466.682s1.17-3.508 4.027-3.638c0 0 4.547-1.04 4.677-4.937l9.612-.13 3.508-1.56h4.807s-.65 4.158 1.43 7.146c0 0 4.416 4.157 2.468 7.665 0 0-.13 2.078-3.378 2.338 0 0-1.818.39-2.338-3.117 0 0 0-2.34-3.77-2.21l-5.845.26s-5.457.78-5.977 8.574c0 0-3.507 0-4.677-3.118l-.13-3.247c.002 0-.778-4.288-4.415-4.028z" id="kanagawa"/>
    </g>
    <g id="chuubu">
        <g id="niigata">
            <path class="st1" d="M352.505 328.326l4.156 3.118s6.497 4.157 6.497 4.937c0 0 2.73 1.56 1.818 3.508 0 0-.26 1.82-3.637 4.027 0 0-2.21.91-2.34 5.587 0 0-1.038 4.547 4.678 8.964l-3.118 5.066-.13 5.456s-.52 3.638-2.857 4.417c0 0-1.818 1.818-6.365 2.208 0 0-3.378.78-3.378 4.157 0 0-.52 6.886 1.43 9.614 0 0 4.417 3.767 4.157 7.015 0 0-4.027-1.43-7.016 1.948 0 0-2.208 2.208-4.027 7.534 0 0-1.038 3.378-4.936 3.378 0 0-2.208-2.08-4.937-7.405 0 0-1.688-3.117-4.677-2.987 0 0-2.988-.39-4.677 4.027l-2.6 3.637s-1.428 1.56-4.286 1.82c0 0-3.507.39-4.027 1.558 0 0-1.17.78-1.43-1.04 0 0-.52-1.168-2.207-1.038 0 0-2.6 0-3.248 1.818 0 0-.52 1.56-2.21 1.04 0 0-4.936-2.73-6.364-5.717 0 0 6.757-2.468 7.147-3.378l3.637-2.078s3.118-3.768 4.157-3.118c0 0 14.812-9.355 14.94-18.578 0 0 1.3-4.287 2.21-4.157 0 0 1.688-1.818 2.078-5.716 0 0 3.638-9.355 10.522-12.083 0 0 11.822-9.613 9.224-21.306 0 0-.39-2.986.65-3.637 0 0 1.04-1.688 1.17-2.597zM313.66 361.193s1.56-1.56-1.298-3.638c0 0-1.56-.26-1.56-2.598 0 0-.26-1.95 2.21-2.73 0 0 1.038-1.428.648-3.117l2.468-5.456s.78-2.078 3.248-1.17c0 0 2.73.26 1.56 3.38l-1.95 5.325s-.648 3.377 1.43 3.507c0 0 2.73-1.43 2.73.65 0 0 .778 1.687-1.43 3.896l-5.587 5.846s-.65 1.948-2.21.648c0 .002-1.298-1.426-.26-4.545z"/>
        </g>
        <path class="st1" d="M295.084 405.104s4.157 4.157 6.885 6.365c0 0-2.08 4.937-2.21 7.534-.13 2.6.78 11.433-.52 11.692h-14.55s-4.157.13-5.326 3.247c0 0-1.17 2.47-3.118 2.858l-1.56-1.428s0-.91-2.467-.65c0 0 .128-4.676-.78-6.755v-13.38s0-4.678 3.507-4.548c0 0 2.34 5.195 6.756 5.195 0 0 3.117.91 5.326-3.117 0 0-.52-4.027 2.207-4.157l2.21-2.208s1.948-1.298 3.637-.648z" id="toyama"/>
        <path class="st1" d="M251.823 437.71s14.03-14.938 11.432-24.682c0 0-.13-8.444-1.3-9.224 0 0-2.597-2.6-2.077-6.886 0 0 4.287-7.015 5.846-6.885 0 0 1.95-2.08 4.157-1.56 0 0 3.898-.52 6.236-4.417 0 0 2.6-3.247 6.626-1.56 0 0 2.6 1.17.91 4.808l-3.25 5.456s-1.558 2.21-7.144 5.326c0 0-1.56.13-1.56 2.858 0 0 .26 1.56 2.34 1.95 0 0 1.558-.39 1.428 1.687 0 0 .39.91-.91 1.82l.13 2.468s-3.637-.13-4.026 4.027l-.26 15.2s1.04 2.208.65 6.755c0 0 .91 8.055-2.34 9.483 0 0-2.468 1.3-1.948 2.598 0 0-3.117.65-4.677-.648l-10.262-8.57z" id="ishikawa"/>
        <path class="st1" d="M336.266 409.78s-3.118-3.897-4.027-6.495c0 0-1.04-3.378-4.158-3.378 0 0-1.948-.52-3.118 2.208 0 0-4.807 7.795-7.404 7.146 0 0-4.417-.26-4.287 1.3 0 0 .65.65-1.69.65 0 0-1.038-.26-2.077-1.95 0 0-1.04-1.558-2.988.65 0 0-.91 2.08-3.118 2.08 0 0-2.728 2.597-2.728 6.884l.13 10.393s.26 2.6-1.43 2.988l.78 5.976s1.43 13.642-3.638 15.46c0 0-1.95.52-1.818 2.34 0 0 .52 2.728 2.987 3.637 0 0 9.743 6.496 5.587 21.955l2.468.26 2.208.78 5.457.13s2.208.13 2.468-1.69l7.666-10.91.26-1.95 2.47-3.768s.778-2.208.39-7.145l-.13-5.197s-.65-2.21 2.986-2.08h7.795s2.47.39 3.248-1.817l1.3-2.73-4.808-4.676s-1.948-2.73-.91-6.625c0 0 1.04-5.847-1.558-6.236 0 0-7.147 0-7.926-5.197 0 0 .52-6.235 3.117-6.885l6.496-6.108z" id="nagano"/>
        <path class="st1" d="M342.63 446.285s5.588 5.326 8.835 5.457c0 0 7.275 1.948 7.535 5.196 0 0 .52 3.897-2.208 4.417 0 0-5.197.65-6.236 5.716 0 0-.13 1.17-5.976.91 0 0-4.807-.91-5.456 4.547 0 0 .13 4.287-1.82 4.677 0 0-.648.78-3.117-2.468l-7.534-9.094s1.688-2.988 1.04-9.094v-4.287s-.52-1.3 2.598-1.17l8.055.13c0 .002 1.948.65 4.286-4.935z" id="yamanashi"/>
        <path class="st1" d="M326.003 466.552l8.834 10.652s.65 1.17 2.208 1.3c0 0 1.818-.13 2.34-2.08l.778-4.286s.39-2.988 4.027-2.988c0 0 6.755 0 7.274-1.3 0 0 2.73-1.038 3.378 2.99l.65 3.896s2.078 3.768 5.585 3.507l1.69 2.6s1.168.39 1.038 3.767l-.13 6.105s-.26 2.6-2.47 3.248l-1.947 2.338s-2.988 1.04-2.858 3.25c0 0 0 2.857-1.818 2.857 0 0-3.378-.39-3.897-6.236v-10.65s.52-4.418-4.677-2.73l-6.105 3.378s-2.988.78-2.988 5.066c0 0 .78 3.897-3.248 7.146 0 0-1.56.65-1.56 5.066 0 0 .26 3.508-2.857 3.508l-20.525.13-5.847 1.17s-2.338-8.575 4.938-14.94l3.377-3.118s6.236-10.652 7.795-10.393l5.196-8.574s.91-1.82.65-2.47l1.17-2.208z" id="shizuoka"/>
        <path class="st1" d="M313.79 483.96l-2.857 4.547s-1.04 1.818-2.73 2.598c0 0-8.572 5.977-6.364 17.148 0 0-13.122 3.897-13.9 3.897 0 0 .39-1.56 1.817-1.948 0 0 5.197-2.73 5.327-5.067 0 0-.65-2.468-6.366-.78l-4.937 2.21s-1.687.65-2.987-1.69c0 0-2.208-2.597-1.688-8.442 0 0 .78-2.858-3.378-.78 0 0-.78-2.468-2.338-2.987l-1.69-2.21s-.78-1.687.52-1.817c0 0 2.34-1.82 2.08-4.548 0 0 .648-4.287 3.507-4.287h4.807s6.235.52 6.885 2.598l2.078.78 14.03-.13c-.002-.002 3.896 1.556 8.183.907z" id="aichi"/>
        <path class="st1" d="M298.33 431.995h-14.16s-2.077-.52-3.637 2.6c0 0-1.948 3.506-4.417 3.246 0 0-2.468-.648-2.468-2.077h-1.17s.39 6.495-3.247 9.743c0 0-1.688.91-1.688 4.157 0 0 .26 3.118 2.47 3.768 0 0 1.558.91 1.687 3.38 0 0 .26 3.636-5.457 5.065 0 0-10.912.52-11.432 6.235 0 0 3.897 6.236 4.157 8.444l1.95 2.6s1.168 11.69 9.482 10.132c0 0 .778-2.47 1.818-2.47 0 0 1.3-1.298 1.17-3.766 0 0 .908-4.287 4.676-4.418 0 0 7.664-.65 11.302 2.34 0 0 1.69 1.038 3.378 1.168l9.354-.26s3.248-10.782-1.948-17.668c0 0-.26-2.208-5.327-5.326 0 0-1.17-.39-1.3-2.858 0 0 .13-2.208 2.21-3.247 0 0 3.248-1.43 3.377-8.054 0 0 .65-6.496-.39-8.704.002 0-1.038-4.027-.39-4.027z" id="gifu"/>
        <path class="st1" d="M251.174 438.62s-4.677 5.197-4.937 7.275c0 0-2.21 4.027-4.027 4.937 0 0-2.73 2.6-.52 5.847 0 0 7.274 7.144 3.377 11.04l-2.987 2.6s-4.547-.13-4.937 3.507c0 0-1.04 3.378-8.834 4.287 0 0 .13 4.157 4.286 4.417 0 0 4.417 1.17 6.885-1.947l2.47-2.47 3.637-1.947 2.47-2.73s4.286-2.986 6.235-7.144c0 0 2.857-4.937 9.613-5.066 0 0 6.885-1.04 6.755-4.417 0 0-1.04-3.38-2.728-3.38 0 0-2.08-1.298-1.43-5.195l-2.728-.26s-1.69.39-4.677-2.6l-7.923-6.754z" id="fukui"/>
    </g>
    <g id="kansai">
        <path class="st1" d="M254.032 469.02s-2.6 3.508-4.938 5.066c0 0-1.3 1.17-1.948 2.6l-3.508 1.947s-3.897 3.508-5.456 4.287c0 0 3.378 4.938 2.988 8.314 0 0-.39 5.457 1.3 7.795l5.195 9.612s3.358-6.76 7.016-5.846c.52.13 5.067-.52 5.717-2.08 0 0 1.3-.648 1.3-3.506l-.13-11.562s-1.69-4.807-1.43-5.716l-1.69-2.21c0 .002-1.427-5.325-4.415-8.702z" id="shiga"/>
        <path class="st1" d="M262.605 487.728s.91 12.86-.91 13.12c0 0-2.597 2.988-5.585 2.73 0 0-3.118-.52-7.665 5.975 0 0 2.6 3.248 4.027 4.287 0 0 1.82 1.69 1.688 3.768v18.837s-1.948 5.457-5.716 9.225c0 0-4.21 1.636-2.728 3.117.13.13 1.948 4.287 7.274 5.456l.13-4.286s.26-2.988 2.21-2.988l5.325-4.678s2.338-1.17 1.948-5.326c0 0-.52-4.547 2.988-5.197l11.303-4.548h3.378s4.938-1.56 4.808-4.287c0 0 1.56-2.208-6.235-7.145l-10.652-6.496s-2.987-1.818-.39-4.937l2.988-5.456s.39-1.947 4.027-2.987c0 0-1.17-2.468-2.47-2.598 0 0-.908-1.43-1.817-2.988.002-.002-7.142.258-7.923-2.6z" id="mie"/>
        <path class="st1" d="M205.056 474.477s3.507-1.56 5.846-5.197c0 0 1.56-3.117 4.417-2.728 0 0 2.467.39 1.947 3.638l-.52 4.027s.52 4.026 2.73 5.066c0 0 1.428.52 2.077-1.95 0 0 .91-2.856 3.118-2.856 0 0 2.078-.13 2.468 2.857 0 0-.52 3.638 2.988 5.326 0 0 1.17 1.56 6.756.91 0 0 3.377 3.377 3.117 10.782 0 0 2.99 9.873 6.887 14.94 0 0 .78 1.43-2.73.91l-3.117-.13s-1.17-.132-3.896-3.38l-4.677-5.325s-.65-1.04-3.508-1.04c0 0-2.73.78-5.457-3.247 0 0-1.3-5.587-8.185-7.016 0 0-4.417.52-5.326-2.208 0 0-1.17-.65 1.43-2.73 0 0 .908-1.038.908-2.728 0 0-.39-2.468-3.248-3.768 0 .003-2.857-1.816-4.026-4.153z" id="kyooto"/>
        <path class="st1" d="M237.793 509.032v12.472s-.26 3.897.78 5.586c0 0 .52.78.39 5.327 0 0-3.12 4.026-3.25 7.145l-.13 5.456s.52 2.34 2.34 2.47l2.73 1.168h3.895s-.13-2.728 2.6-3.638c0 0 5.585-4.547 6.364-9.743l-.26-17.148s-.78-3.897-2.598-4.417l-2.988-3.117s-.91.91-3.248.91c0 0-2.728-.91-3.638-.39 0-.002-1.688-.65-2.987-2.08z" id="nara"/>
        <path class="st1" d="M237.273 527.35s2.078 4.157-1.43 8.185c0 0-1.3.39-1.3 6.626 0 0-.26 5.847 1.95 5.977 0 0 2.987.91 3.247 1.3l5.196.13s2.988 5.326 8.185 5.716l.13 4.027s-.39 2.857-2.597 2.857l-5.067 4.417s-1.688 1.3-3.767-.26l-1.82-.26s-3.508-2.338-4.157-2.6c0 0-2.728-2.077-3.637-1.168 0 0-3.768-2.468-4.027-2.598 0 0-.65-1.95-2.08-2.6 0 0-1.3-1.558-1.3-2.728 0 0-1.298-2.987-4.026-3.117 0 0-3.378-2.73-2.078-5.977v-5.586s-1.04-2.857-.78-5.716c0 0 .52-2.47 2.858-2.858 0 0 3.378-2.078 3.508-3.248l.91-1.17s.778 1.3 4.286 1.04l7.795-.388z" id="wakayama"/>
        <path class="st1" d="M227.53 501.498s3.507 9.743.52 15.46c0 0 1.818 5.455-2.21 8.963 0 0 .91 1.04 4.028.78l7.146-.52s-1.69-12.73.13-18.058l-5.197-5.846s.13-1.038-4.417-.778z" id="osaka"/>
        <g id="hyogo">
            <path class="st1" d="M203.886 474.736s2.858 4.287 4.937 4.937c0 0 2.73 1.3 2.47 3.117 0 0-.26 1.56-1.3 2.34 0 0-1.3.908-1.17 2.987 0 0 1.82 2.857 5.196 2.987 0 0 4.937-.26 7.404 4.027 0 0 2.6 5.457 4.807 5.978 0 0 1.82 4.547 1.69 6.755 0 0 .78 6.365-.39 8.314 0 0-1.69-1.04-4.027 0 0 0-5.847 2.208-9.744 0 0 0-2.6-1.43-7.925-.65 0 0-14.42-3.896-16.89-.648 0 0-8.963-13.9-.39-20.138 0 0 4.548-3.248 4.808-8.964 0 0 0-5.196-6.106-10.652 0 0 1.56-1.82 4.808-1.95 0 0 4.157-.39 5.846.52 0 0 1.82 1.17 5.976 1.04zM210.642 520.205s1.04-1.3 2.685.086c0 0 1.905.954.953 2.86l-.347 1.904s-.087 2.165-2.252 3.55c0 0-.952 1.04-.865 3.206 0 0 .78 4.07-3.204 4.243 0 0-3.204 0-4.156-2.77 0 0-1.3-4.504 1.212-6.41l2.858-3.117s.866-2.165 1.992-2.078l1.126-1.473z"/>
        </g>
    </g>
    <g id="shikoku">
        <path class="st1" d="M165.562 548.785s-.52-1.624-2.08-2.857l.13-4.353s.39-1.948 1.82-2.6c0 0 2.403-1.817 3.637-2.4L173.42 533s.91-1.038 3.183-1.038c0 0 2.403.064 2.858 1.104 0 0 1.04.91 2.338.844 0 0 .846-.324 1.105-.844 0 0 1.04-1.364 2.858-.13l2.144 1.364 2.144.194s2.08.52 2.015 2.144c0 0-4.223 5.002-8.77 5.132 0 0-2.728-.195-4.937 1.363 0 0-7.665.715-8.834 3.184 0 0-1.688.454-3.962 2.468z" id="kagawa"/>
        <path class="st1" d="M166.212 552.748v-2.34s.26-1.687 1.818-1.947c0 0 2.858-1.623 2.923-2.078 0 0 3.897-2.208 7.08-1.948 0 0 2.794-1.494 4.547-1.494 0 0 5.457 0 10.328-5.846 0 0 2.923.714 2.988.454 0 0 2.533-.064 2.663-.324 0 0 1.038-.26 1.103 2.014 0 0 .714 5.78 2.793 6.04 0 0 2.144.715 2.144 4.872 0 0 .715 3.183-3.378 5.976 0 0-5.78 3.768-10.652 10.264 0 0-8.964-9.16-14.16-10.978l-4.482-.065s-1.818-.52-1.948-1.04c0 0-.975-1.3-3.768-1.56z" id="tokushima"/>
        <path class="st1" d="M189.92 567.168s-9.873-10.264-14.16-10.913h-3.896s-1.624-.194-3.378-1.753c0 0-3.118-1.43-6.496.194l-5.78 1.948s-2.73 2.404-5.91 3.508c0 0-2.534 1.04-3.25 4.482 0 0-1.883 4.87-6.755 9.094 0 0-1.753.65-1.818 4.352 0 0 .715 3.378-2.208 5.52l-5.133 4.548s-.845.064-.78 2.663c0 0-.26 1.69 1.04 2.6l1.04 2.144s.584.974-.39 1.948l-3.77 4.353 2.6 3.962s1.43 2.6 3.702.845c0 0 2.662-2.73 4.61-2.73h3.833s1.818-.064.715-2.857c0 0-.065-.91-1.494-2.273 0 0-.195-2.663 1.884-3.767 0 0 7.405-7.21 7.34-13.057 0 0-.26-5.586 6.95-7.34 0 0 3.248-1.56 3.378-3.183 0 0 .324-1.95 3.572-2.144h4.547s5.066.325 8.055 4.808c0 0 1.04 1.948 2.988 2.793 0 0 1.623.586 1.884 1.56 0 0 1.818 1.754 2.663-.454 0 0 4.48-9.744 4.416-10.848z" id="kochi"/>
        <path class="st1" d="M162.77 546.577s3.117 2.273 2.272 6.17c0 0-2.402.065-3.507 1.04 0 0-2.73 1.17-5.066 1.688 0 0-2.21.715-2.404 1.494 0 0-3.833 2.338-4.807 2.598 0 0-2.34 1.3-2.795 4.027 0 0-3.183 6.95-7.015 9.418 0 0-1.884 1.3-1.95 4.612 0 0 .456 3.507-1.103 4.352l-6.3 5.78s-.78.195-.78 3.054c0 0-.13 1.95 1.233 3.054 0 0 1.43 1.754.715 2.858l-3.702 4.027s-1.56-2.794-3.443-2.794c0 0-2.273-.065-3.247 2.857 0 0-1.82 3.053-2.794 3.118 0 0-.325-1.103.584-2.077l3.508-6.756s.455-5.52 2.273-6.95c0 0 1.948-1.754.064-3.508l-2.34-4.028s-2.143-2.663-5.325-2.273c0 0-7.795.778-9.354 0 0 0-.714-.975 2.664-.91 0 0 5.586-.13 9.094-3.768l7.145-6.82s2.664-.65 3.054-4.352c0 0-.065-2.34 1.17-3.118 0 0 1.947-.65 1.947-5.132 0 0 1.69-6.885 6.626-7.73 0 0 1.948-.778 4.027 2.6l2.728 3.378s.26.844 1.884.91c0 0 1.493 0 2.078-1.105 0 0 1.363-1.754 3.507-1.818h4.223s3.897-.845 5.13-3.898z" id="ehime"/>
    </g>
    <g id="chuugoku">
        <path class="st1" d="M147.245 504.27s2.944 2.857 1.472 5.196c0 0 .953 2.944 2.425 3.896 0 0 1.82 1.992 1.386 3.638l6.062 11.173s1.646-1.213 2.686-.52c0 0 2.77.605 3.29-.52 0 0 1.213-2.512 3.984-.26l1.386 1.04s4.59 1.21 6.322-2.686c0 0 1.732-3.118 3.205-3.378 0 0 7.274-4.072 8.747-6.497 0 0-3.984-4.504-4.33-10.912 0 0-1.473-5.63 4.07-10.738h-5.456s-2.252.52-5.803-3.118c0 0-1.298-2.425-3.896-.606l-2.77 1.732s-1.993 1.3-4.418.347c0 0-6.842-.26-10.826 6.235 0 0-3.638 3.985-7.535 5.977z" id="okayama"/>
        <path class="st1" d="M186.564 475.688s10.826 9.613 2.512 16.802l-6.756.174s-2.685.086-5.022-2.945c0 0-1.386-2.6-5.11-.607l-3.464 1.992s-1.386.78-2.858 0c0 0-6.495-.952-11.778 6.322 0 0-5.37 5.89-7.882 6.063 0 0-3.896-.693-3.724-3.552 0 0 0-3.724 2.512-5.022 0 0 5.456-3.205 4.677-9.094 0 0 3.984-.693 5.284-2.512 0 0 1.56-.953 4.937-.953 0 0 15.157.952 16.976-2.6 0 0 2.6-1.645 4.07-1.558 0 0 1.21.52 5.628-2.512z" id="tottori"/>
        <path class="st1" d="M90.776 526.354s-.52 6.236 3.29 8.574l4.245 2.512s3.292 1.386 3.898-1.473c0 0 1.818-12.298 7.36-14.896 0 0 4.418-2.25 4.505-3.03 0 0 1.126-1.213 3.638-.693 0 0 5.37 1.56 8.315-3.724l4.59-7.275s.433-2.426 5.11-2.34l8.833-.085s-2.944-.52-3.03-4.59c0 0-.26-3.984 2.77-5.11 0 0 5.023-2.425 4.417-8.4h-5.023s-3.03-.434-1.818-2.512c0 0 1.56-2.165-.26-2.685 0 0-4.417-1.04-5.976 1.213 0 0-1.387 2.078-3.29 2.685 0 0-6.757 3.204-8.49 8.314 0 0-20.005 19.66-28.926 31.006.002 0-2.163 2.425-4.156 2.51z" id="shimane"/>
        <path class="st1" d="M89.824 526.268s-1.3 6.235 2.685 8.747l5.195 3.378s3.55 1.386 5.11-1.3c0 0 .952-1.645.952-3.29 0 0 2.858 3.117 4.157 5.716 0 0 .087 1.125 4.33 3.29 0 0 1.905 4.503-2.252 8.92 0 0-.865 2.166-.952 3.984l-.173 5.196s.173 2.252-1.56.434c0 0-.952-1.387-2.425-1.3 0 0-2.252-1.472-3.378-3.464 0 0-7.188-6.496-17.408-2.6 0 0-1.818 2.253-3.204 2.426l-3.03 2.512s-2.686 1.82-4.59-.865l-1.56-2.858s.433-1.646-2.426-1.04c0 0-1.646 1.3-2.512-.605 0 0-.952-1.473-2.944-1.386 0 0-1.213-.173-.087-3.638l.174-5.976s.433-3.118 3.55-3.118h3.898s1.386-1.646 3.637-1.646c0 0 5.803 0 6.93-4.59 0 0 2.946-7.362 7.882-6.928z" id="yamaguchi"/>
        <path class="st1" d="M112.082 541.51s.866-3.724 5.11-3.724c0 0 4.33.087 5.196 3.29 0 0 .606 2.513 4.157 2.513 0 0 2.685.346 4.417-2.6 0 0 3.377-3.117 5.976-3.117 0 0 7.968-.952 8.314-3.638 0 0 2.165-3.378 5.803-3.204 0 0 2.598.434 2.685 1.213 0 0 3.118 1.04 2.944-1.646 0 0 .087-1.905.953-1.992L151.662 517s.173-2.685-1.992-3.464c0 0-2.512-3.55-1.82-5.63 0 0 .348-1.818-2.164-3.204l-11 .26s-1.645-.346-3.55 2.34l-4.85 7.707s-1.905 3.29-6.41 3.29h-3.81s-2.165.347-2.945 1.646c0 0-.864 1.04-1.817 1.212 0 0-5.456 2.686-7.188 11.173 0 0 3.725 4.505 4.33 6.41 0 0 1.038 1.558 3.637 2.77z" id="hiroshima"/>
    </g>
    <g id="kyuushuu">
        <path class="st1" d="M66.354 556.493s5.63 13.857 10.393 14.55c0 0-3.464 6.41-7.274 7.535 0 0-4.938 2.34-5.197 6.062l-.086 6.41s1.212 4.156-7.275 4.59c0 0-4.504 1.385-7.275 4.33 0 0-2.165-4.504-3.896-5.543l7.708-8.4s.865-.866.78-2.772c0 0 .086-1.386-2.945-1.472H37.34s-3.29-.087-3.897-2.166c0 0 2.512-.346 2.512-2.078 0 0-.347-4.765 3.118-4.765 0 0 2.338-.347 2.598.78 0 0 4.332 1.645 5.804-4.158 0 0 .866-7.015 8.92-9.96l2.6-.086s2.25.174 2.857-.778c0 0 1.474-1.82 2.513-1.732l1.99-.347z" id="fukuoka"/>
        <path class="st1" d="M64.708 593.388s1.212-2.425.692-9.354c0 0 .953-3.204 4.417-4.59 0 0 5.63-2.425 7.968-7.882 0 0 4.85 2.252 8.574-.605 0 0 2.424-3.725 7.447-.434 0 0 3.378 2.08 1.386 6.67 0 0-4.59 5.802-2.685 6.84 0 0 .087 1.56 4.33 1.56 0 0 3.205-.52 4.504 3.465l4.07 6.756s4.937 4.677.174 9.007c0 0-5.803-.865-7.97 2.08 0 0-1.124 1.905-3.81.952 0 0-.346-.606-3.377-.347 0 0-7.883 1.126-11.606-10.912 0 0 1.04-4.504-2.08-5.803 0 0-3.377-1.56-5.802 3.118 0 0-.952 2.685-2.165 2.685l-4.07-3.205z" id="oita"/>
        <path class="st1" d="M32.576 579.617l-4.59-.086s-2.34-.173-2.425 3.032l-.086 8.66 4.85 5.543 4.244 1.82 1.818 1.385 2.77.78s-.69-7.362 3.38-7.276c0 0 1.038-.346 2.078.26l8.228-8.574s1.732-2.078-.953-2.338l-15.417-.087s-3.377-.26-3.897-3.118z" id="saga"/>
        <path class="st1" d="M24.262 587.76v3.55s2.426 4.85 7.016 7.102c0 0 3.395 1.488 4.07 2.165.087.087 1.646 1.386 3.725 1.3l-.087 4.33s-.347 2.08 2.425 1.732c0 0 4.245-1.647 6.41.086 0 0 2.77 2.425 0 5.196 0 0-3.55 5.976-7.275 5.37 0 0-1.472-.52-1.04-2.858 0 0 1.647-4.764-1.21-4.937 0 0-1.127-.867-4.765 2.425 0 0-5.196 6.842-8.92 5.89 0 0-1.3-.953 0-1.906 0 0 1.298-1.646-.348-4.937 0 0-4.937-3.032-5.022-7.017 0 0-.693-4.59 1.386-4.503 0 0 5.022 1.126 4.503 5.456 0 0 .692 3.29 4.416 3.204 0 0 2.945.26 1.992-3.204 0 0-2.685-5.89-6.67-6.062 0 0-3.377.086-6.494-4.764 0 0-6.062-4.157-3.118-7.62 0 0 1.732-2.253 4.677-1.906 0 0 3.55.52 4.33 1.905z" id="nagasaki"/>
        <path class="st1" d="M49.984 601.01s5.023-4.937 8.747-4.417c0 0 2.687.173 5.198-2.34l3.29 2.86s1.732 1.99 3.552-.953c0 0 1.646-4.677 5.456-4.417 0 0 2.34-.26 1.646 4.937 0 0 .347 3.983 4.677 8.487 0 0-4.504 6.755-8.142 10.046 0 0-2.08.866-2.252 4.937 0 0 .347 2.772 2.685 5.197 0 0 2.772 9.873-1.99 12.385 0 0-5.89 1.126-8.575 3.55 0 0-2.25-5.282-17.408-3.03l5.89-7.102s1.905-.52 1.646-5.977l.087-4.243s0-1.992-1.732-2.08c0 0-2.252-.432 0-1.645 0 0 2.425-.26 2.685-6.755 0 0 .174-3.378-2.598-5.283l-2.86-4.157z" id="kumamoto"/>
        <path class="st1" d="M83.328 606.033s2.77 2.685 6.322 2.425c0 0 3.552-.78 3.897.52 0 0 3.118.693 4.677-1.3 0 0 .347-2.077 6.67-1.904l-.953 1.99s.78 4.678-3.55 7.45c0 0-3.812 3.204-4.244 9.18 0 0 .52 7.882-2.685 10.826 0 0-1.818 3.55-1.818 8.747v17.668s-.26 9.614-5.11 9.527c0 0-1.818-.087-2.685-2.6l-1.472-1.21s1.818-5.978-2.165-8.662l-7.968-5.803s-3.638-2.858-4.418-6.322c0 0-1.3-3.638-2.944-4.504 0 0 3.118-2.164 6.582-2.684 0 0 4.244-.433 4.85-6.15l.174-5.28s-.952-5.37-2.944-6.324c0 0-1.818-2.165.866-4.937 0 0 8.14-8.228 8.92-10.652z" id="miyazaki"/>
        <path class="st1" d="M46 639.03s15.503-2.078 17.93 3.378c0 0 2.77 2.512 3.982 6.67 0 0 1.646 3.203 4.85 5.542l7.19 5.023s2.77 1.905 1.472 7.015c0 0-2.685.78-3.117 5.457l-.434 4.243s.26 2.685-3.55 3.725c0 0-1.647.52-5.457 4.157 0 0-3.465 2.77-6.496.433 0 0-1.126-3.03 1.732-4.417 0 0 3.638-2.425 3.55-5.803 0 0 .348-4.244-4.676-6.496 0 0-1.212-.26-1.3-2.424l.087-3.812s.087-1.558 2.166-1.47c0 0 1.99-.088 1.904-1.3 0 0 .346-1.473-2.945-.434l-6.15 4.59s-2.598 2.252 0 5.977l4.07 5.11s3.465 4.763-2.424 7.36c0 0-2.166.434-7.362-1.472l-3.29-.086s-3.898-.087-4.504-4.59c0 0-.347-4.59 2.512-5.197 0 0 2.685-1.472 2.338-5.716 0 0 .52-4.59-3.464-6.234 0 0-4.937-5.023-3.205-12.3 0 .003 1.905-3.375 4.59-6.926z" id="kagoshima"/>
    </g>
    <g id="okinawa">
        <path id="okinawa_1_" class="st1" d="M471.417 639.03s-4.33.347-3.55-6.67l1.21-1.645s1.127-1.905-.432-3.464c0 0-2.252-2.337-.087-4.243 0 0 5.63-3.464 4.764-7.88l-2.426-2.427s.087-.865 1.906-.865c0 0 7.534.52 8.228-6.583 0 0 1.3-6.148 4.937-4.85 0 0 3.897 1.56.78 6.15l-3.64 4.936s-4.936 2.425-4.85 4.937c0 0 .78 1.82-1.212 2.944 0 0-2.512 1.904-.173 3.724l1.56 1.3s1.818 1.73-1.387 2.857c0 0-6.755 2.08-2.598 5.284 0 0 3.812 4.678-3.03 6.496z"/>
        <path class="st0" d="M400.57 671.422s6.237-106.008 107.048-106.008" id="Layer_56"/>
    </g>
</svg>
